<svg id="e1hz2rXtScs1" xmlns="http://www.w3.org/2000/svg" xmlns:xlink="http://www.w3.org/1999/xlink" viewBox="0 0 306.1 259.7" shape-rendering="geometricPrecision" text-rendering="geometricPrecision"><g><g><path d="M170,99.4c10-1.3,19.4-5.7,26.8-12.9c9-8.8,14-20.5,14.2-33c.2-12.6-4.6-24.4-13.3-33.4-8.8-9-20.5-14-33-14.2-12.6-.2-24.4,4.6-33.4,13.3-9,8.8-14,20.5-14.2,33-.2,12.6,4.6,24.4,13.3,33.4c7.2,7.4,16.4,12.1,26.4,13.7l-.3,19.4c0,2,2.3,3.6,5.1,3.7h3c1.7,0,3.3-.6,4.2-1.5.6-.6.9-1.3,1-2.1l.2-19.4ZM137.3,25.5c7.3-7.1,16.9-10.9,27.1-10.8s19.7,4.2,26.8,11.5s10.9,16.9,10.8,27.1-4.2,19.7-11.5,26.8-16.9,10.9-27.1,10.8-19.7-4.2-26.8-11.5-10.9-16.9-10.8-27.1s4.2-19.7,11.5-26.8Z" fill="#020202"/><path d="M198.3,53.3c.3-18.9-14.9-34.5-33.9-34.8-9.2-.1-17.8,3.3-24.4,9.7s-10.3,15-10.4,24.1c-.1,9.2,3.3,17.8,9.7,24.4s15,10.3,24.1,10.4c7.5.1,14.6-2.2,20.5-6.4c1.4-1,2.7-2.1,3.9-3.3c6.7-6.4,10.3-14.9,10.5-24.1Z" fill="#424143"/></g><g id="e1hz2rXtScs6"><g><g><g><g><g><path d="M129.2,46c-3.7,19.3,8.9,38,28.3,41.7s38-8.9,41.7-28.3-8.9-38-28.3-41.7-38,9-41.7,28.3Zm37.2,7.2c-.2,1.3-1.5,2.1-2.7,1.8-1.3-.2-2.1-1.5-1.8-2.7.2-1.3,1.5-2.1,2.7-1.8c1.3.2,2.1,1.4,1.8,2.7Z" fill="#050507"/></g></g><g><g><g><path d="M131.2,46.4c-3.5,18.2,8.4,35.8,26.6,39.3s35.8-8.4,39.3-26.6-8.4-35.8-26.6-39.3-35.8,8.4-39.3,26.6Zm45.6,8.8c-1.3,7-8.1,11.5-15.1,10.2s-11.5-8.1-10.2-15.1s8.1-11.5,15.1-10.2s11.5,8.1,10.2,15.1Z" fill="#111213"/></g></g></g><g><g><path d="M195.8,58.8c0,0,0,.2-.1.6c0,.2-.1.4-.1.7c0,.1-.1.3-.1.4s-.1.3-.1.5c-.1.3-.2.7-.3,1.1s-.3.8-.4,1.3-.3.9-.5,1.4c-.1.3-.2.5-.3.8s-.2.5-.3.8c-.2.5-.5,1.1-.8,1.7-.2.3-.3.6-.5.9s-.3.6-.5.9-.4.6-.6.9-.4.6-.6.9c-.1.1-.2.3-.3.4s-.2.3-.3.4c-.2.3-.5.6-.7.9-1,1.1-2,2.3-3.2,3.3s-2.4,2-3.7,2.9-2.7,1.7-4.1,2.4-2.8,1.2-4.3,1.7c-.4.1-.7.2-1.1.3-.2,0-.3.1-.5.1s-.4.1-.5.1c-.3.1-.7.2-1,.2-.3.1-.7.1-1,.2s-.7.1-1,.2c-.3,0-.7.1-1,.1-.6.1-1.3.1-1.8.1-.3,0-.6,0-.9,0s-.6,0-.8,0c-.5,0-1.1,0-1.5,0-.5,0-.9-.1-1.3-.1-.4-.1-.8-.1-1.1-.1-.2,0-.3,0-.5-.1-.2,0-.3-.1-.4-.1-.3,0-.5-.1-.7-.1-.4-.1-.6-.1-.6-.1s.2,0,.6.1c.2,0,.4.1.7.1.1,0,.3,0,.4.1.2,0,.3,0,.5.1.3,0,.7.1,1.1.1s.9,0,1.3.1c.5,0,1,0,1.5,0c.3,0,.5,0,.8,0s.6,0,.9,0c.6,0,1.2-.1,1.8-.2.3,0,.6-.1,1-.1.3,0,.7-.1,1-.2s.7-.1,1-.2.7-.2,1-.2c.7-.2,1.4-.4,2.1-.6c1.4-.5,2.8-1,4.2-1.7s2.8-1.5,4.1-2.4s2.5-1.9,3.7-2.9c1.1-1.1,2.2-2.2,3.1-3.3.2-.3.5-.6.7-.9s.4-.6.6-.9.4-.6.6-.9.4-.6.6-.9.4-.6.5-.9c.2-.3.3-.6.5-.8.3-.6.6-1.1.8-1.6.1-.3.2-.5.4-.8.1-.3.2-.5.3-.8.2-.5.4-1,.6-1.4.2-.5.3-.9.4-1.3s.2-.8.3-1.1c0-.2.1-.3.1-.5s.1-.3.1-.4c.1-.3.1-.5.2-.7c0-.3,0-.5,0-.5Z" fill="#b3b3b3"/><path d="M132.5,46.6c0,0,0-.2.1-.6c0-.2.1-.4.1-.7c0-.1.1-.3.1-.4s.1-.3.1-.5c.1-.3.2-.7.3-1.1s.3-.8.4-1.3.3-.9.5-1.4c.1-.3.2-.5.3-.8s.2-.5.3-.8c.2-.5.5-1.1.8-1.7.2-.3.3-.6.5-.9s.3-.6.5-.9.4-.6.6-.9.4-.6.6-.9c.1-.1.2-.3.3-.4s.2-.3.3-.4c.2-.3.5-.6.7-.9c1-1.1,2-2.3,3.2-3.3s2.4-2,3.7-2.9s2.7-1.7,4.1-2.4s2.8-1.2,4.3-1.7c.4-.1.7-.2,1.1-.3.2,0,.3-.1.5-.1s.4-.1.5-.1c.3-.1.7-.2,1-.2.3-.1.7-.1,1-.2s.7-.1,1-.2c.3,0,.7-.1,1-.1.6-.1,1.3-.1,1.8-.1.3,0,.6,0,.9,0s.6,0,.8,0c.5,0,1.1,0,1.5,0c.5,0,.9.1,1.3.1.4.1.8.1,1.1.1.2,0,.3,0,.5.1.2,0,.3.1.4.1.3,0,.5.1.7.1.4.1.6.1.6.1s-.2,0-.6-.1c-.2,0-.4-.1-.7-.1-.1,0-.3,0-.4-.1-.2,0-.3,0-.5-.1-.3,0-.7-.1-1.1-.1s-.9,0-1.3-.1c-.5,0-1,0-1.5,0-.3,0-.5,0-.8,0s-.6,0-.9,0c-.6,0-1.2.1-1.8.2-.3,0-.6.1-1,.1-.3,0-.7.1-1,.2s-.7.1-1,.2-.7.2-1,.2c-.7.2-1.4.4-2.1.6-1.4.5-2.8,1-4.2,1.7s-2.8,1.5-4.1,2.4-2.5,1.9-3.7,2.9c-1.1,1.1-2.2,2.2-3.1,3.3-.2.3-.5.6-.7.9s-.4.6-.6.9-.4.6-.6.9-.4.6-.6.9-.4.6-.5.9c-.2.3-.3.6-.5.8-.3.6-.6,1.1-.8,1.6-.1.3-.2.5-.4.8-.1.3-.2.5-.3.8-.2.5-.4,1-.6,1.4-.2.5-.3.9-.4,1.3s-.2.8-.3,1.1c0,.2-.1.3-.1.5s-.1.3-.1.4c-.1.3-.1.5-.2.7.1.4,0,.5,0,.5Z" fill="#b3b3b3"/><path d="M193.9,58.5c0,0,0,.2-.1.5c0,.2-.1.4-.1.6c0,.1-.1.3-.1.4s-.1.3-.1.4c-.1.3-.2.7-.3,1-.1.4-.2.8-.4,1.2-.1.4-.3.9-.5,1.4-.1.2-.2.5-.3.7s-.2.5-.3.8c-.2.5-.5,1-.8,1.6-.1.3-.3.5-.4.8-.2.3-.3.5-.5.8s-.3.5-.5.8-.4.5-.6.8c-.1.1-.2.3-.3.4s-.2.3-.3.4c-.2.3-.4.5-.6.8-.9,1.1-1.9,2.1-3,3.1s-2.3,1.9-3.5,2.8c-1.2.8-2.5,1.6-3.9,2.2-1.3.6-2.7,1.2-4,1.6-.3.1-.7.2-1,.3-.2,0-.3.1-.5.1s-.3.1-.5.1c-.3.1-.7.2-1,.2-.3.1-.6.1-1,.2-.3.1-.6.1-.9.1s-.6.1-.9.1c-.6,0-1.2.1-1.7.1-.3,0-.6,0-.8,0-.3,0-.5,0-.8,0-.5,0-1,0-1.4,0-.5,0-.9-.1-1.3-.1s-.7-.1-1.1-.1c-.2,0-.3,0-.5-.1-.1,0-.3,0-.4-.1-.2,0-.5-.1-.6-.1-.3-.1-.5-.1-.5-.1s.2,0,.5.1c.2,0,.4.1.6.1.1,0,.3,0,.4.1.1,0,.3,0,.5,0c.3,0,.7.1,1.1.1s.8,0,1.3.1c.5,0,.9,0,1.4,0c.3,0,.5,0,.8,0s.5,0,.8,0c.6,0,1.1-.1,1.7-.2.3,0,.6-.1.9-.1s.6-.1.9-.2.6-.1,1-.2c.3-.1.6-.2,1-.2.7-.1,1.3-.4,2-.6c1.3-.4,2.7-1,4-1.6s2.6-1.4,3.8-2.2s2.4-1.8,3.5-2.7c1.1-1,2.1-2,3-3.1.4-.6.9-1.1,1.2-1.6.2-.3.4-.5.6-.8s.4-.5.5-.8c.2-.3.3-.5.5-.8s.3-.5.5-.8c.3-.5.5-1,.8-1.6.1-.3.2-.5.3-.7s.2-.5.3-.7c.2-.5.4-.9.5-1.3s.3-.8.4-1.2.2-.7.3-1c0-.2.1-.3.1-.4s.1-.3.1-.4c.1-.2.1-.5.1-.6.1-.3.1-.4.1-.4Z" fill="#b3b3b3"/><path d="M134.4,47c0,0,0-.2.1-.5c0-.2.1-.4.1-.6c0-.1.1-.3.1-.4s.1-.3.1-.4c.1-.3.2-.7.3-1c.1-.4.2-.8.4-1.2.1-.4.3-.9.5-1.4.1-.2.2-.5.3-.7s.2-.5.3-.8c.2-.5.5-1,.8-1.6.1-.3.3-.5.4-.8.2-.3.3-.5.5-.8s.3-.5.5-.8.4-.5.6-.8c.1-.1.2-.3.3-.4s.2-.3.3-.4c.2-.3.4-.5.6-.8.9-1.1,1.9-2.1,3-3.1s2.3-1.9,3.5-2.8c1.2-.8,2.5-1.6,3.9-2.2c1.3-.6,2.7-1.2,4-1.6.3-.1.7-.2,1-.3.2,0,.3-.1.5-.1s.3-.1.5-.1c.3-.1.7-.2,1-.2.3-.1.6-.1,1-.2.3-.1.6-.1.9-.1s.6-.1.9-.1c.6,0,1.2-.1,1.7-.1.3,0,.6,0,.8,0c.3,0,.5,0,.8,0c.5,0,1,0,1.4,0c.5,0,.9.1,1.3.1s.7.1,1.1.1c.2,0,.3,0,.5.1.1,0,.3,0,.4.1.2,0,.5.1.6.1.3.1.5.1.5.1s-.2,0-.5-.1c-.2,0-.4-.1-.6-.1-.1,0-.3,0-.4-.1-.1,0-.3,0-.5,0-.3,0-.7-.1-1.1-.1s-.8,0-1.3-.1c-.5,0-.9,0-1.4,0-.3,0-.5,0-.8,0s-.5,0-.8,0c-.6,0-1.1.1-1.7.2-.3,0-.6.1-.9.1s-.6.1-.9.2-.6.1-1,.2c-.3.1-.6.2-1,.2-.7.1-1.3.4-2,.6-1.3.4-2.7,1-4,1.6s-2.6,1.4-3.8,2.2-2.4,1.8-3.5,2.7c-1.1,1-2.1,2-3,3.1-.4.6-.9,1.1-1.2,1.6-.2.3-.4.5-.6.8s-.4.5-.5.8c-.2.3-.3.5-.5.8s-.3.5-.5.8c-.3.5-.5,1-.8,1.6-.1.3-.2.5-.3.7s-.2.5-.3.7c-.2.5-.4.9-.5,1.3s-.3.8-.4,1.2-.2.7-.3,1c0,.2-.1.3-.1.4s-.1.3-.1.4c-.1.2-.1.5-.1.6-.1.2-.1.4-.1.4Z" fill="#b3b3b3"/><path d="M192.1,58.1c0,0,0,.2-.1.5c0,.2-.1.4-.1.6c0,.1-.1.2-.1.4c0,.1-.1.3-.1.4-.1.3-.2.6-.3,1s-.2.7-.4,1.1c-.1.4-.3.8-.5,1.3-.1.2-.2.4-.3.7-.1.2-.2.5-.3.7-.2.5-.5,1-.7,1.5-.1.2-.3.5-.4.8s-.3.5-.5.8-.3.5-.5.8-.4.5-.5.8c-.1.1-.2.3-.3.4s-.2.3-.3.4c-.2.3-.4.5-.6.8-.8,1-1.8,2-2.8,2.9s-2.1,1.8-3.3,2.6-2.4,1.5-3.6,2.1-2.5,1.1-3.8,1.5c-.3.1-.6.2-.9.3-.2,0-.3.1-.5.1s-.3.1-.5.1c-.3.1-.6.1-.9.2s-.6.1-.9.2-.6.1-.9.1-.6.1-.9.1c-.6,0-1.1.1-1.6.1-.3,0-.5,0-.8,0s-.5,0-.7,0c-.5,0-.9,0-1.4,0-.4,0-.8-.1-1.2-.1s-.7-.1-1-.1c-.2,0-.3,0-.4-.1-.1,0-.3,0-.4-.1-.2,0-.4-.1-.6-.1-.3-.1-.5-.1-.5-.1s.2,0,.5.1c.2,0,.4.1.6.1.1,0,.2,0,.4.1.1,0,.3,0,.4,0c.3,0,.6.1,1,.1s.8,0,1.2.1c.8,0,1.8,0,2.8,0c.5,0,1.1-.1,1.6-.1.3,0,.6-.1.8-.1.3,0,.6-.1.9-.1.3-.1.6-.1.9-.2s.6-.1.9-.2c.6-.1,1.2-.3,1.8-.5c1.2-.4,2.5-.9,3.7-1.5s2.4-1.3,3.6-2.1c1.1-.8,2.2-1.6,3.3-2.6c1-.9,1.9-1.9,2.8-2.9.4-.5.8-1,1.2-1.5.2-.3.4-.5.5-.8.2-.3.3-.5.5-.8.2-.2.3-.5.5-.8.1-.3.3-.5.4-.7.3-.5.5-1,.7-1.5.4-.9.8-1.8,1.1-2.6.1-.4.3-.8.4-1.1.1-.4.2-.7.3-1c0-.1.1-.3.1-.4s.1-.3.1-.4c.1-.2.1-.4.1-.6.4-.5.5-.7.5-.7Z" fill="#b3b3b3"/><path d="M136.3,47.4c0,0,0-.2.1-.5c0-.2.1-.4.1-.6c0-.1.1-.2.1-.4c0-.1.1-.3.1-.4.1-.3.2-.6.3-1s.2-.7.4-1.1c.1-.4.3-.8.5-1.3.1-.2.2-.4.3-.7.1-.2.2-.5.3-.7.2-.5.5-1,.7-1.5.1-.2.3-.5.4-.8s.3-.5.5-.8.3-.5.5-.8.4-.5.5-.8c.1-.1.2-.3.3-.4s.2-.3.3-.4c.2-.3.4-.5.6-.8.8-1,1.8-2,2.8-2.9s2.1-1.8,3.3-2.6s2.4-1.5,3.6-2.1s2.5-1.1,3.8-1.5c.3-.1.6-.2.9-.3.2,0,.3-.1.5-.1s.3-.1.5-.1c.3-.1.6-.1.9-.2s.6-.1.9-.2.6-.1.9-.1.6-.1.9-.1c.6,0,1.1-.1,1.6-.1.3,0,.5,0,.8,0s.5,0,.7,0c.5,0,.9,0,1.4,0c.4,0,.8.1,1.2.1s.7.1,1,.1c.2,0,.3,0,.4.1.1,0,.3,0,.4.1.2,0,.4.1.6.1.3.1.5.1.5.1s-.2,0-.5-.1c-.2,0-.4-.1-.6-.1-.1,0-.2,0-.4-.1-.1,0-.3,0-.4,0-.3,0-.6-.1-1-.1s-.8,0-1.2-.1c-.8,0-1.8,0-2.8,0-.5,0-1.1.1-1.6.1-.3,0-.6.1-.8.1-.3,0-.6.1-.9.1-.3.1-.6.1-.9.2s-.6.1-.9.2c-.6.1-1.2.3-1.8.5-1.2.4-2.5.9-3.7,1.5s-2.4,1.3-3.6,2.1c-1.1.8-2.2,1.6-3.3,2.6-1,.9-1.9,1.9-2.8,2.9-.4.5-.8,1-1.2,1.5-.2.3-.4.5-.5.8-.2.3-.3.5-.5.8-.2.2-.3.5-.5.8-.1.3-.3.5-.4.7-.3.5-.5,1-.7,1.5-.4.9-.8,1.8-1.1,2.6-.1.4-.3.8-.4,1.1-.1.4-.2.7-.3,1c0,.1-.1.3-.1.4s-.1.3-.1.4c-.1.2-.1.4-.1.6-.5.5-.5.7-.5.7Z" fill="#b3b3b3"/><path d="M190.2,57.7c0,0,0,.2-.1.5c0,.1-.1.3-.1.6c0,.1,0,.2-.1.3c0,.1-.1.3-.1.4-.1.3-.2.6-.2.9-.1.3-.2.7-.3,1.1s-.3.8-.4,1.2c-.1.2-.2.4-.3.6s-.2.4-.3.7c-.2.4-.4.9-.7,1.4-.1.2-.3.5-.4.7s-.3.5-.4.7-.3.5-.5.7-.3.5-.5.7c-.3.5-.7,1-1.1,1.4-.8.9-1.6,1.9-2.6,2.7-1,.9-2,1.7-3.1,2.4s-2.2,1.4-3.4,1.9c-1.2.6-2.3,1-3.5,1.4-.3.1-.6.2-.9.3-.1,0-.3.1-.4.1s-.3.1-.4.1c-.3.1-.6.1-.9.2s-.6.1-.8.2c-.3.1-.5.1-.8.1s-.5.1-.8.1c-.5,0-1,.1-1.5.1-.2,0-.5,0-.7,0s-.5,0-.7,0c-.4,0-.9,0-1.3,0s-.8-.1-1.1-.1-.7-.1-.9-.1c-.1,0-.3,0-.4-.1-.1,0-.2,0-.4-.1-.2,0-.4-.1-.6-.1-.3-.1-.5-.1-.5-.1s.2,0,.5.1c.2,0,.3.1.6.1.1,0,.2,0,.4.1.1,0,.3,0,.4,0c.3,0,.6.1.9.1s.7,0,1.1.1c.8,0,1.7,0,2.7,0c.5,0,1-.1,1.5-.1.3,0,.5-.1.8-.1s.5-.1.8-.1c.3-.1.6-.1.8-.2.3-.1.6-.1.8-.2.6-.1,1.1-.3,1.7-.5c1.2-.4,2.3-.8,3.5-1.4c1.1-.6,2.3-1.2,3.3-1.9c1.1-.7,2.1-1.5,3-2.4s1.8-1.8,2.6-2.7c.4-.5.8-.9,1.1-1.4.2-.2.3-.5.5-.7s.3-.5.5-.7.3-.5.4-.7.3-.5.4-.7c.2-.5.5-.9.7-1.4.4-.9.7-1.7,1-2.5.1-.4.2-.7.4-1.1.1-.3.2-.6.3-.9c0-.1.1-.3.1-.4s.1-.2.1-.3c0-.2.1-.4.1-.5.2-.3.2-.5.2-.5Z" fill="#b3b3b3"/><path d="M138.1,47.7c0,0,0-.2.1-.5c0-.1.1-.3.1-.5c0-.1,0-.2.1-.3c0-.1.1-.3.1-.4.1-.3.2-.6.2-.9.1-.3.2-.7.3-1.1s.3-.8.4-1.2c.1-.2.2-.4.3-.6s.2-.4.3-.7c.2-.4.4-.9.7-1.4.1-.2.3-.5.4-.7s.3-.5.4-.7.3-.5.5-.7.3-.5.5-.7c.3-.5.7-1,1.1-1.4.8-.9,1.6-1.9,2.6-2.7c1-.9,2-1.7,3.1-2.4s2.2-1.4,3.4-1.9c1.2-.6,2.3-1,3.5-1.4.3-.1.6-.2.9-.3.1,0,.3-.1.4-.1s.3-.1.4-.1c.3-.1.6-.1.9-.2s.6-.1.8-.2c.3-.1.5-.1.8-.1s.5-.1.8-.1c.5,0,1-.1,1.5-.1.2,0,.5,0,.7,0s.5,0,.7,0c.4,0,.9,0,1.3,0s.8.1,1.1.1.7.1.9.1c.1,0,.3,0,.4.1.1,0,.2,0,.4.1.2,0,.4.1.6.1.3.1.5.1.5.1s-.2,0-.5-.1c-.2,0-.3-.1-.6-.1-.1,0-.2,0-.4-.1-.1,0-.3,0-.4,0-.3,0-.6-.1-.9-.1s-.7,0-1.1-.1c-.8,0-1.7,0-2.7,0-.5,0-1,.1-1.5.1-.3,0-.5.1-.8.1s-.5.1-.8.1c-.3.1-.6.1-.8.2-.3.1-.6.1-.8.2-.6.1-1.1.3-1.7.5-1.2.4-2.3.8-3.5,1.4-1.1.6-2.3,1.2-3.3,1.9-1.1.7-2.1,1.5-3,2.4s-1.8,1.8-2.6,2.7c-.4.5-.8.9-1.1,1.4-.2.2-.3.5-.5.7s-.3.5-.5.7-.3.5-.4.7-.3.5-.4.7c-.2.5-.5.9-.7,1.4-.4.9-.7,1.7-1,2.5-.1.4-.2.7-.4,1.1-.1.3-.2.6-.3.9c0,.1-.1.3-.1.4s-.1.2-.1.3c0,.2-.1.4-.1.5-.1.3-.2.4-.2.4Z" fill="#b3b3b3"/><path d="M188.3,57.4c0,0,0,.1-.1.4c0,.1-.1.3-.1.5c0,.1,0,.2-.1.3c0,.1-.1.2-.1.4-.1.3-.1.5-.2.8s-.2.6-.3,1-.3.7-.4,1.1-.3.8-.5,1.2-.4.8-.6,1.3c-.1.2-.2.4-.4.7-.1.2-.2.4-.4.7-.1.2-.3.4-.4.7-.1.2-.3.4-.5.7-.3.5-.7.9-1,1.3-.7.9-1.5,1.7-2.4,2.5s-1.8,1.6-2.8,2.2c-1,.7-2.1,1.3-3.1,1.8-1.1.5-2.2.9-3.3,1.3-1.1.3-2.2.6-3.2.8-.3.1-.5.1-.8.1s-.5.1-.7.1c-.5,0-1,.1-1.4.1-.5,0-.9,0-1.3,0s-.8,0-1.2,0-.7-.1-1-.1-.6-.1-.9-.1c-.1,0-.3,0-.4,0s-.2,0-.3-.1c-.2,0-.4-.1-.5-.1-.3,0-.4-.1-.4-.1s.1,0,.4.1c.1,0,.3,0,.5.1.1,0,.2,0,.3,0s.2,0,.4,0c.3,0,.6.1.9.1s.7,0,1,.1c.7,0,1.6,0,2.5,0c.5,0,.9-.1,1.4-.1.2,0,.5-.1.7-.1s.5-.1.8-.1.5-.1.8-.2.5-.1.8-.2c.5-.1,1.1-.3,1.6-.4c1.1-.4,2.2-.8,3.2-1.3c1.1-.5,2.1-1.1,3.1-1.8s1.9-1.4,2.8-2.2s1.7-1.7,2.4-2.5c.3-.4.7-.9,1-1.3.2-.2.3-.4.5-.7.1-.2.3-.4.4-.7.1-.2.3-.4.4-.7.1-.2.2-.4.4-.6.2-.4.4-.8.6-1.3.4-.8.7-1.6.9-2.3.1-.3.2-.7.3-1s.2-.6.2-.8c0-.1.1-.2.1-.4c0-.1.1-.2.1-.3c0-.2.1-.4.1-.5.2-.3.2-.4.2-.4Z" fill="#b3b3b3"/><path d="M140,48.1c0,0,0-.1.1-.4c0-.1.1-.3.1-.5c0-.1,0-.2.1-.3c0-.1.1-.2.1-.4.1-.3.1-.5.2-.8s.2-.6.3-1s.3-.7.4-1.1.3-.8.5-1.2.4-.8.6-1.3c.1-.2.2-.4.4-.7.1-.2.2-.4.4-.7.1-.2.3-.4.4-.7.1-.2.3-.4.5-.7.3-.5.7-.9,1-1.3.7-.9,1.5-1.7,2.4-2.5s1.8-1.6,2.8-2.2c1-.7,2.1-1.3,3.1-1.8c1.1-.5,2.2-.9,3.3-1.3c1.1-.3,2.2-.6,3.2-.8.3-.1.5-.1.8-.1s.5-.1.7-.1c.5,0,1-.1,1.4-.1.5,0,.9,0,1.3,0s.8,0,1.2,0s.7.1,1,.1.6.1.9.1c.1,0,.3,0,.4,0s.2,0,.3.1c.2,0,.4.1.5.1.3,0,.4.1.4.1s-.1,0-.4-.1c-.1,0-.3,0-.5-.1-.1,0-.2,0-.3,0s-.2,0-.4,0c-.3,0-.6-.1-.9-.1s-.7,0-1-.1c-.7,0-1.6,0-2.5,0-.5,0-.9.1-1.4.1-.2,0-.5.1-.7.1s-.5.1-.8.1-.5.1-.8.2-.5.1-.8.2c-.5.1-1.1.3-1.6.4-1.1.4-2.2.8-3.2,1.3-1.1.5-2.1,1.1-3.1,1.8s-1.9,1.4-2.8,2.2-1.7,1.7-2.4,2.5c-.3.4-.7.9-1,1.3-.2.2-.3.4-.5.7-.1.2-.3.4-.4.7-.1.2-.3.4-.4.7-.1.2-.2.4-.4.6-.2.4-.4.8-.6,1.3-.4.8-.7,1.6-.9,2.3-.1.3-.2.7-.3,1s-.2.6-.2.8c0,.1-.1.2-.1.4c0,.1-.1.2-.1.3c0,.2-.1.4-.1.5-.2.2-.2.4-.2.4Z" fill="#b3b3b3"/><path d="M186.4,57c0,0,0,.1-.1.4c0,.1-.1.3-.1.5s-.1.4-.1.6c-.1.2-.1.5-.2.8s-.2.6-.3.9-.2.7-.4,1c-.1.4-.3.7-.5,1.1s-.4.8-.6,1.2c-.1.2-.2.4-.3.6s-.2.4-.4.6c-.5.8-1.1,1.6-1.7,2.5-.7.8-1.4,1.6-2.2,2.3s-1.7,1.4-2.6,2.1c-.9.6-1.9,1.2-2.9,1.7s-2,.9-3,1.2-2,.6-2.9.7c-.2,0-.5.1-.7.1s-.5.1-.7.1c-.5,0-.9.1-1.3.1s-.8,0-1.2,0-.7,0-1.1,0c-.3,0-.7-.1-.9-.1-.3,0-.6-.1-.8-.1s-.5-.1-.6-.1c-.2,0-.3-.1-.5-.1-.3,0-.4-.1-.4-.1s.1,0,.4.1c.1,0,.3,0,.5.1.2,0,.4.1.6.1s.5.1.8.1.6,0,.9,0c.7,0,1.4,0,2.3,0c.4,0,.8-.1,1.3-.1.2,0,.4-.1.7-.1.2,0,.5-.1.7-.1s.5-.1.7-.1c.2-.1.5-.1.7-.2.5-.1,1-.3,1.5-.4c1-.3,2-.7,3-1.2s1.9-1,2.9-1.7c.9-.6,1.8-1.3,2.6-2s1.5-1.5,2.2-2.3c.3-.4.6-.8.9-1.2.1-.2.3-.4.4-.6s.3-.4.4-.6.3-.4.4-.6.2-.4.3-.6c.2-.4.4-.8.6-1.2.4-.8.6-1.5.9-2.1.1-.3.2-.6.3-.9s.2-.5.2-.8c.1-.2.1-.4.2-.6c0-.2.1-.3.1-.5c0-.4,0-.5,0-.5Z" fill="#b3b3b3"/><path d="M141.9,48.4c0,0,0-.1.1-.4c0-.1.1-.3.1-.5s.1-.4.1-.6c.1-.2.1-.5.2-.8s.2-.6.3-.9.2-.7.4-1c.1-.4.3-.7.5-1.1s.4-.8.6-1.2c.1-.2.2-.4.3-.6s.2-.4.4-.6c.5-.8,1.1-1.6,1.7-2.5.7-.8,1.4-1.6,2.2-2.3s1.7-1.4,2.6-2.1c.9-.6,1.9-1.2,2.9-1.7s2-.9,3-1.2s2-.6,2.9-.7c.2,0,.5-.1.7-.1s.5-.1.7-.1c.5,0,.9-.1,1.3-.1s.8,0,1.2,0s.7,0,1.1,0c.3,0,.7.1.9.1.3,0,.6.1.8.1s.5.1.6.1c.2,0,.3.1.5.1.3,0,.4.1.4.1s-.1,0-.4-.1c-.1,0-.3,0-.5-.1-.2,0-.4-.1-.6-.1s-.5-.1-.8-.1-.6,0-.9,0c-.7,0-1.4,0-2.3,0-.4,0-.8.1-1.3.1-.2,0-.4.1-.7.1-.2,0-.5.1-.7.1s-.5.1-.7.1c-.2.1-.5.1-.7.2-.5.1-1,.3-1.5.4-1,.3-2,.7-3,1.2s-1.9,1-2.9,1.7c-.9.6-1.8,1.3-2.6,2s-1.5,1.5-2.2,2.3c-.3.4-.6.8-.9,1.2-.1.2-.3.4-.4.6s-.3.4-.4.6-.3.4-.4.6-.2.4-.3.6c-.2.4-.4.8-.6,1.2-.4.8-.6,1.5-.9,2.1-.1.3-.2.6-.3.9s-.2.5-.2.8c-.1.2-.1.4-.2.6c0,.2-.1.3-.1.5c0,.4,0,.5,0,.5Z" fill="#b3b3b3"/><path d="M184.6,56.6c0,0,0,.1-.1.4c0,.1-.1.3-.1.4c0,.2-.1.4-.1.6-.1.2-.1.5-.2.7-.1.3-.2.5-.3.8s-.2.6-.3.9-.3.7-.4,1c-.2.3-.3.7-.5,1.1s-.4.7-.6,1.1c-.4.8-1,1.5-1.6,2.3-.6.7-1.3,1.5-2,2.2s-1.6,1.3-2.4,1.9c-.9.6-1.7,1.1-2.7,1.5-.9.4-1.8.8-2.8,1.1-.9.3-1.8.5-2.7.6-.4.1-.9.1-1.3.2-.4,0-.8.1-1.2.1s-.8,0-1.1,0-.7,0-1,0-.6,0-.9-.1c-.3,0-.5-.1-.7-.1s-.4-.1-.6-.1-.3-.1-.4-.1c-.2,0-.4-.1-.4-.1s.1,0,.4.1c.2,0,.6.1,1,.1.2,0,.5,0,.7.1.3,0,.6,0,.9,0c.6,0,1.3,0,2.1,0c.4,0,.8-.1,1.2-.1.4-.1.8-.1,1.3-.2.2,0,.4-.1.7-.1.2,0,.4-.1.7-.2.4-.1.9-.2,1.3-.4.9-.3,1.8-.7,2.7-1.1s1.8-1,2.6-1.5c.8-.6,1.6-1.2,2.4-1.9.7-.7,1.4-1.4,2-2.1.3-.4.6-.7.9-1.1.1-.2.3-.4.4-.6s.2-.4.4-.6c.2-.4.4-.7.6-1.1s.4-.7.5-1.1c.3-.7.6-1.3.8-1.9.1-.3.2-.6.3-.8.1-.3.1-.5.2-.7.1-.4.2-.8.3-1-.1,0,0-.2,0-.2Z" fill="#b3b3b3"/><path d="M143.8,48.8c0,0,0-.1.1-.4c0-.1.1-.3.1-.4c0-.2.1-.4.1-.6.1-.2.1-.5.2-.7.1-.3.2-.5.3-.8s.2-.6.3-.9.3-.7.4-1c.2-.4.3-.7.5-1.1s.4-.7.6-1.1c.4-.8,1-1.5,1.6-2.3.6-.7,1.3-1.5,2-2.2s1.6-1.3,2.4-1.9c.9-.6,1.7-1.1,2.7-1.5.9-.4,1.8-.8,2.8-1.1.9-.3,1.8-.5,2.7-.6.4-.1.9-.1,1.3-.2.4,0,.8-.1,1.2-.1s.8,0,1.1,0s.7,0,1,0s.6,0,.9.1c.3,0,.5.1.7.1s.4.1.6.1.3.1.4.1c.2,0,.4.1.4.1s-.1,0-.4-.1c-.2,0-.6-.1-1-.1-.2,0-.5,0-.7-.1-.3,0-.6,0-.9,0-.6,0-1.3,0-2.1,0-.4,0-.8.1-1.2.1-.4.1-.8.1-1.3.2-.2,0-.4.1-.7.1-.2,0-.4.1-.7.2-.4.1-.9.2-1.3.4-.9.3-1.8.7-2.7,1.1s-1.8,1-2.6,1.5c-.8.6-1.6,1.2-2.4,1.9-.7.7-1.4,1.4-2,2.1-.3.4-.6.7-.9,1.1-.1.2-.3.4-.4.6s-.2.4-.4.6c-.2.4-.4.7-.6,1.1s-.4.7-.5,1.1c-.3.7-.6,1.3-.8,1.9-.1.3-.2.6-.3.8-.1.3-.1.5-.2.7-.1.4-.2.8-.3,1c0,.1,0,.2,0,.2Z" fill="#b3b3b3"/><path d="M182.7,56.3c0,0,0,.1-.1.3c0,.2-.1.5-.2.9-.1.2-.1.4-.2.7-.1.2-.2.5-.2.8-.2.5-.4,1.1-.7,1.8-.1.3-.3.6-.5,1-.2.3-.4.7-.6,1-.4.7-.9,1.4-1.4,2.1-.6.7-1.2,1.3-1.8,2-.7.6-1.4,1.2-2.2,1.7s-1.6,1-2.4,1.4-1.7.7-2.5,1-1.7.5-2.4.6c-.4.1-.8.1-1.2.2-.4,0-.7.1-1.1.1-.7,0-1.3,0-1.9,0-.3,0-.5,0-.8-.1-.2,0-.5-.1-.7-.1-.4,0-.7-.1-.9-.2-.2,0-.3-.1-.3-.1s.1,0,.3,0s.5.1.9.1c.2,0,.4,0,.7.1.2,0,.5,0,.8,0c.6,0,1.2,0,1.9,0c.3,0,.7-.1,1.1-.1.4-.1.8-.1,1.1-.2.8-.1,1.6-.4,2.4-.6.8-.3,1.7-.6,2.5-1s1.6-.9,2.4-1.4s1.5-1.1,2.2-1.7s1.3-1.3,1.8-1.9c.5-.7,1-1.3,1.5-2c.2-.3.4-.7.6-1s.3-.6.5-1c.3-.6.5-1.2.7-1.7.1-.3.2-.5.3-.7s.1-.4.2-.6c.1-.4.2-.7.2-.9c0-.4,0-.5,0-.5Z" fill="#b3b3b3"/><path d="M145.6,49.2c0,0,0-.1.1-.3c0-.2.1-.5.2-.9.1-.2.1-.4.2-.7.1-.2.2-.5.2-.8.2-.5.4-1.1.7-1.8.1-.3.3-.6.5-1c.2-.3.4-.7.6-1c.4-.7.9-1.4,1.4-2.1.6-.7,1.2-1.3,1.8-2c.7-.6,1.4-1.2,2.2-1.7s1.6-1,2.4-1.4s1.7-.7,2.5-1s1.7-.5,2.4-.6c.4-.1.8-.1,1.2-.2.4,0,.7-.1,1.1-.1.7,0,1.3,0,1.9,0c.3,0,.5,0,.8.1.2,0,.5.1.7.1.4,0,.7.1.9.2.2,0,.3.1.3.1s-.1,0-.3,0-.5-.1-.9-.1c-.2,0-.4,0-.7-.1-.2,0-.5,0-.8,0-.6,0-1.2,0-1.9,0-.3,0-.7.1-1.1.1-.4.1-.8.1-1.1.2-.8.1-1.6.4-2.4.6-.8.3-1.7.6-2.5,1s-1.6.9-2.4,1.4-1.5,1.1-2.2,1.7-1.3,1.3-1.8,1.9c-.5.7-1,1.3-1.5,2-.2.3-.4.7-.6,1s-.3.6-.5,1c-.3.6-.5,1.2-.7,1.7-.1.3-.2.5-.3.7s-.1.4-.2.6c-.1.4-.2.7-.2.9.1.4,0,.5,0,.5Z" fill="#b3b3b3"/><path d="M180.8,55.9c0,0,0,.1-.1.3c0,.2-.1.5-.2.8c0,.2-.1.4-.2.6s-.1.4-.2.7c-.2.5-.4,1-.6,1.6-.1.3-.3.6-.4.9-.2.3-.3.6-.5.9-.4.6-.8,1.2-1.3,1.9-.5.6-1.1,1.2-1.7,1.8s-1.3,1.1-2,1.6-1.4.9-2.2,1.2c-.7.4-1.5.6-2.3.9-.8.2-1.5.4-2.2.5-.4.1-.7.1-1,.1s-.7.1-1,.1c-.6,0-1.2,0-1.7,0-.3,0-.5,0-.7-.1-.2,0-.4-.1-.6-.1-.4,0-.6-.1-.8-.1s-.3-.1-.3-.1.1,0,.3,0s.5.1.8.1c.2,0,.4,0,.6.1.2,0,.5,0,.7,0c.5,0,1.1,0,1.7,0c.3,0,.6-.1,1-.1.3-.1.7-.1,1-.2.7-.1,1.4-.3,2.2-.5.7-.2,1.5-.5,2.2-.9s1.4-.8,2.1-1.2c.7-.5,1.3-1,1.9-1.5.6-.6,1.1-1.1,1.7-1.7.5-.6.9-1.2,1.3-1.8.2-.3.4-.6.5-.9.2-.3.3-.6.4-.9.3-.6.5-1.1.7-1.6.1-.2.2-.5.2-.7.1-.2.1-.4.2-.6.1-.3.2-.6.2-.8.3-.2.3-.3.3-.3Z" fill="#b3b3b3"/><path d="M147.5,49.5c0,0,0-.1.1-.3c0-.2.1-.5.2-.8c0-.2.1-.4.2-.6s.1-.4.2-.7c.2-.5.4-1,.6-1.6.1-.3.3-.6.4-.9.2-.3.3-.6.5-.9.4-.6.8-1.2,1.3-1.9.5-.6,1.1-1.2,1.7-1.8s1.3-1.1,2-1.6s1.4-.9,2.2-1.2c.7-.4,1.5-.6,2.3-.9.8-.2,1.5-.4,2.2-.5.4-.1.7-.1,1-.1s.7-.1,1-.1c.6,0,1.2,0,1.7,0c.3,0,.5,0,.7.1.2,0,.4.1.6.1.4,0,.6.1.8.1s.3.1.3.1-.1,0-.3,0-.5-.1-.8-.1c-.2,0-.4,0-.6-.1-.2,0-.5,0-.7,0-.5,0-1.1,0-1.7,0-.3,0-.6.1-1,.1-.3.1-.7.1-1,.2-.7.1-1.4.3-2.2.5-.7.2-1.5.5-2.2.9s-1.4.8-2.1,1.2c-.7.5-1.3,1-1.9,1.5-.6.6-1.1,1.1-1.7,1.7-.5.6-.9,1.2-1.3,1.8-.2.3-.4.6-.5.9-.2.3-.3.6-.4.9-.3.6-.5,1.1-.7,1.6-.1.2-.2.5-.2.7-.1.2-.1.4-.2.6-.1.3-.2.6-.2.8-.3.2-.3.3-.3.3Z" fill="#b3b3b3"/><path d="M178.9,55.6c0,0,0,.1-.1.3c0,.2-.1.4-.2.7c0,.2-.1.3-.1.5-.1.2-.1.4-.2.6-.1.4-.3.9-.5,1.4-.1.3-.2.5-.4.8-.1.3-.3.5-.5.8-.3.6-.7,1.1-1.2,1.6-.4.5-.9,1.1-1.5,1.6-.5.5-1.1,1-1.7,1.4s-1.3.8-1.9,1.1c-.7.3-1.3.6-2,.8s-1.3.4-2,.5c-.3.1-.6.1-.9.1s-.6.1-.9.1c-.6,0-1.1,0-1.5,0-.2,0-.4,0-.6-.1-.2,0-.4,0-.5-.1-.3,0-.6-.1-.7-.1-.2,0-.3,0-.3,0s.1,0,.3,0s.4.1.7.1c.2,0,.3,0,.5.1.2,0,.4,0,.6,0c.4,0,1,0,1.5,0c.3,0,.6-.1.9-.1s.6-.1.9-.1c.6-.1,1.3-.3,1.9-.5.7-.2,1.3-.5,2-.8.6-.3,1.3-.7,1.9-1.1s1.2-.9,1.7-1.3c.5-.5,1-1,1.5-1.5.4-.5.8-1.1,1.2-1.6.2-.3.3-.5.5-.8.1-.3.3-.5.4-.8.2-.5.4-1,.6-1.4.1-.2.1-.4.2-.6s.1-.4.1-.5c.1-.3.1-.6.2-.7.1-.3.1-.4.1-.4Z" fill="#b3b3b3"/><path d="M149.4,49.9c0,0,0-.1.1-.3c0-.2.1-.4.2-.7c0-.2.1-.3.1-.5.1-.2.1-.4.2-.6.1-.4.3-.9.5-1.4.1-.3.2-.5.4-.8.1-.3.3-.5.5-.8.3-.6.7-1.1,1.2-1.6.4-.5.9-1.1,1.5-1.6.5-.5,1.1-1,1.7-1.4s1.3-.8,1.9-1.1c.7-.3,1.3-.6,2-.8s1.3-.4,2-.5c.3-.1.6-.1.9-.1s.6-.1.9-.1c.6,0,1.1,0,1.5,0c.2,0,.4,0,.6.1.2,0,.4,0,.5.1.3,0,.6.1.7.1.2,0,.3,0,.3,0s-.1,0-.3,0-.4-.1-.7-.1c-.2,0-.3,0-.5-.1-.2,0-.4,0-.6,0-.4,0-1,0-1.5,0-.3,0-.6.1-.9.1s-.6.1-.9.1c-.6.1-1.3.3-1.9.5-.7.2-1.3.5-2,.8-.6.3-1.3.7-1.9,1.1s-1.2.9-1.7,1.3c-.5.5-1,1-1.5,1.5-.4.5-.8,1.1-1.2,1.6-.2.3-.3.5-.5.8-.1.3-.3.5-.4.8-.2.5-.4,1-.6,1.4-.1.2-.1.4-.2.6s-.1.4-.1.5c-.1.3-.1.6-.2.7-.1.3-.1.4-.1.4Z" fill="#b3b3b3"/><path d="M177.1,55.2c0,0-.1.3-.2.9c0,.1-.1.3-.1.5-.1.2-.1.3-.2.5s-.1.4-.2.6c0,.1-.1.2-.1.3s-.1.2-.1.3c-.1.2-.2.5-.3.7s-.3.5-.4.7c-.1.1-.1.2-.2.4-.1.1-.2.2-.3.4-.2.2-.4.5-.5.7-.4.4-.8.9-1.3,1.4s-1,.8-1.5,1.2c-.6.3-1.1.7-1.7.9-.6.3-1.2.5-1.7.7-.3.1-.6.2-.9.2-.1,0-.3.1-.4.1s-.3,0-.4.1c-.3,0-.5.1-.8.1s-.5,0-.8,0c-.1,0-.2,0-.4,0-.1,0-.2,0-.3,0-.2,0-.4,0-.6,0s-.4,0-.6,0-.3-.1-.5-.1c-.6-.1-.9-.1-.9-.1s.3,0,.9.1c.1,0,.3,0,.5.1.2,0,.4,0,.5,0c.2,0,.4,0,.6,0s.4,0,.7,0c.2,0,.5,0,.7-.1.3,0,.5-.1.8-.1.1,0,.3,0,.4-.1.1,0,.3-.1.4-.1.3-.1.6-.2.9-.2.6-.2,1.2-.4,1.7-.7.6-.3,1.1-.6,1.7-.9.5-.4,1-.7,1.5-1.2.5-.4.9-.9,1.3-1.3.2-.2.4-.5.5-.7.1-.1.2-.2.3-.3s.1-.2.2-.4.3-.5.4-.7.2-.5.3-.7.2-.4.3-.6.2-.4.2-.6c.1-.2.1-.4.2-.5c0-.2.1-.3.1-.5.2-.7.3-1,.3-1Z" fill="#b3b3b3"/><path d="M151.3,50.2c0,0,.1-.3.2-.9c0-.1.1-.3.1-.5.1-.2.1-.3.2-.5s.1-.4.2-.6c0-.1.1-.2.1-.3s.1-.2.1-.3c.1-.2.2-.5.3-.7s.3-.5.4-.7c.1-.1.1-.2.2-.4.1-.1.2-.2.3-.4.2-.2.4-.5.5-.7.4-.4.8-.9,1.3-1.4s1-.8,1.5-1.2c.6-.3,1.1-.7,1.7-.9.6-.3,1.2-.5,1.7-.7.3-.1.6-.2.9-.2.1,0,.3-.1.4-.1s.3,0,.4-.1c.3,0,.5-.1.8-.1s.5,0,.8,0c.1,0,.2,0,.4,0c.1,0,.2,0,.3,0c.2,0,.4,0,.6,0s.4,0,.6,0s.3.1.5.1c.6.1.9.1.9.1s-.3,0-.9-.1c-.1,0-.3,0-.5-.1-.2,0-.4,0-.5,0-.2,0-.4,0-.6,0s-.4,0-.7,0c-.2,0-.5,0-.7.1-.3,0-.5.1-.8.1-.1,0-.3,0-.4.1-.1,0-.3.1-.4.1-.3.1-.6.2-.9.2-.6.2-1.2.4-1.7.7-.6.3-1.1.6-1.7.9-.5.4-1,.7-1.5,1.2-.5.4-.9.9-1.3,1.3-.2.2-.4.5-.5.7-.1.1-.2.2-.3.3s-.1.2-.2.4-.3.5-.4.7-.2.5-.3.7-.2.4-.3.6-.2.4-.2.6c-.1.2-.1.4-.2.5c0,.2-.1.3-.1.5-.3.7-.3,1-.3,1Z" fill="#b3b3b3"/></g></g><g><g><path d="M148,49.6c-1.7,8.9,4.1,17.5,13,19.2s17.5-4.1,19.2-13-4.1-17.5-13-19.2-17.5,4.1-19.2,13Zm18.2,3.5c-.2,1.1-1.3,1.9-2.4,1.6-1.1-.2-1.9-1.3-1.6-2.4s1.3-1.9,2.4-1.6c1.1.2,1.8,1.3,1.6,2.4Z" fill="#050507"/></g></g><g><path d="M153.2,50.6c-1.2,6.1,2.8,11.9,8.9,13.1s11.9-2.8,13.1-8.9-2.8-11.9-8.9-13.1c-6.1-1.1-11.9,2.9-13.1,8.9Zm12.9,2.5c-.2,1.1-1.2,1.8-2.3,1.6s-1.8-1.2-1.6-2.3s1.2-1.8,2.3-1.6s1.8,1.2,1.6,2.3Z" fill="#ffce42"/></g></g></g></g></g></g><g><path d="M7.8,130.2h12.7c8.5,0,14.2.3,17.2,1s5.4,2.3,7.3,5s2.8,7,2.8,12.9c0,5.4-.7,9-2,10.8-1.3,1.9-4,3-7.9,3.3c3.6.9,5.9,2.1,7.2,3.5c1.2,1.5,2,2.8,2.3,4.1s.4,4.6.4,10.2v18.2h-16.6v-23c0-3.7-.3-6-.9-6.9s-2.1-1.3-4.6-1.3v31.2h-18v-69Zm18,11.8v15.4c2,0,3.4-.3,4.2-.8.8-.6,1.2-2.4,1.2-5.4v-3.8c0-2.2-.4-3.6-1.2-4.3-.7-.8-2.1-1.1-4.2-1.1Z"/><path d="M86,199.3h-31.1v-13.8h13.2v-15.2h-11.2v-13.1h11.2v-13.2h-12v-13.8h30v69.1Z"/><path d="M146.7,130.2v69.1h-15.7v-46.7l-6.3,46.7h-11.1L107,153.7v45.6h-15.8v-69.1h23.3c.7,4.2,1.4,9.1,2.1,14.7l2.6,17.6l4.1-32.3h23.4Z"/><path d="M171.8,130.2v69.1h-18v-69.1h18Z"/><path d="M215.5,130.2l-6.3,30.6l9.5,38.5h-16.7c-2-6.9-3.8-15.3-5.5-25.2-.5,4.4-1.1,9-1.9,13.9l-1.7,11.3h-17.5l6.5-38.5-6.5-30.6h17.4c.3,1.9.9,5.1,1.9,9.5.8,3.4,1.4,6.5,1.8,9.4l3.8-18.9h15.2Z"/><path d="M252.4,199.3h-31.2v-13.8h13.2v-15.2h-11.2v-13.1h11.2v-13.2h-12v-13.8h30v69.1Z"/><path d="M257.6,130.2h13.4c8.7,0,14.5.4,17.6,1.2s5.4,2.1,7,3.9s2.6,3.8,3,6.1c.4,2.2.6,6.6.6,13.2v24.2c0,6.2-.3,10.4-.9,12.4-.6,2.1-1.6,3.7-3.1,4.9s-3.2,2-5.4,2.5c-2.1.5-5.4.7-9.6.7h-22.7v-69.1ZM275.5,142v45.5c2.6,0,4.2-.5,4.8-1.6.6-1,.9-3.9.9-8.5v-26.8c0-3.1-.1-5.1-.3-6s-.7-1.5-1.4-1.9c-.7-.5-2-.7-4-.7Z"/></g><g><path d="M82.9,210.5h4.1v32.9h14.9v3.7h-19v-36.6Z"/><path d="M103.7,210.5h4.5l8.6,18.3l8.6-18.3h4.5L118.8,233v14.2h-4.1v-14.2l-11-22.5Z"/><path d="M157.8,247.1h-4.8c-.4-1.7-.7-3.1-.9-4.5-.2-1.3-.2-2.7-.2-4.1c0-2.6-.6-4.5-1.7-5.6-1.1-1.2-2.7-1.8-4.6-1.8h-6.9v16h-4.1v-36.6h9.6c4.6,0,7.8.9,9.4,2.6c1.7,1.7,2.5,4.1,2.5,7.2c0,5.1-2.4,8-7.1,8.8c2.5.3,4.2,1,5.1,2s1.4,2.6,1.5,4.6c.1,1.8.3,4.5.8,7.9.3,1.7.8,2.5,1.5,2.6v.9ZM152,220.7c0-4.4-2.6-6.5-7.7-6.5h-5.7v13.3h6.4c4.7-.1,7-2.4,7-6.8Z"/><path d="M165.1,210.5h4.1v36.6h-4.1v-36.6Z"/><path d="M194.3,233.9h4.2l-.4,4.4c-.3,2.9-1.3,5.3-3.2,7.1-1.8,1.8-4.2,2.7-7.1,2.7-4.1,0-7-1.4-8.8-4.3s-2.7-7.1-2.7-12.6v-2.7c0-6.4.9-11.2,2.8-14.3s4.8-4.7,8.7-4.7c3.2,0,5.7,1,7.7,3c1.9,2,2.9,4.6,2.9,7.8v1h-4.2c-.2-5.4-2.4-8.2-6.6-8.2-2.3,0-4,1.1-5.3,3.3s-1.9,6.7-1.9,13.6c0,4.7.6,8.3,1.7,10.7s2.9,3.6,5.4,3.6c3.7,0,5.8-2.5,6.4-7.6l.4-2.8Z"/><path d="M207.8,235.4v1.8c0,2.5.6,4.4,1.7,5.5s2.8,1.6,5.2,1.6c2.3,0,4-.6,5.2-1.8s1.7-2.8,1.7-4.8c0-1.8-.3-3.2-.8-4.1-.6-.9-1.5-1.5-2.8-2.1l-7.6-2.9c-2.6-1-4.3-2.3-5.1-3.8s-1.2-3.3-1.2-5.4c0-2.9.9-5.3,2.8-7.2s4.3-2.8,7.3-2.8c3.4,0,6,.8,7.7,2.5c1.8,1.7,2.7,3.7,2.7,6.1c0,.6,0,1.1-.1,1.7h-4.2c0-.4.1-.8.1-1.3c0-1.4-.6-2.6-1.6-3.7s-2.4-1.6-4.1-1.6c-2.3,0-4,.5-5,1.6s-1.5,2.7-1.5,4.9c0,2.5,1.2,4.2,3.6,5.1l6.7,2.5c2.8,1.1,4.8,2.4,5.8,3.7c1,1.4,1.5,3.3,1.5,5.7c0,3.4-1,6.1-2.9,8.1s-4.7,3.1-8.5,3.1c-3.3,0-6-.9-7.9-2.7s-2.9-4.6-2.9-8.4v-1.5h4.2Z"/></g>

</svg>
